<?xml version="1.0"?>
<svg width="611.765" height="147.827" xmlns="http://www.w3.org/2000/svg" xmlns:svg="http://www.w3.org/2000/svg">
 <g>
  <title>Layer 1</title>
  <g id="rec"/>
  <g id="Text_x5F_01">
   <g id="POLYLINE">
    <polygon fill="#003067" stroke="#003067" stroke-width="2" id="svg_1" points="505.593,105.841 500.916,99.488 484.766,99.488 494.296,85.898 507.709,85.898 542.657,137.259 529.419,137.259     514.417,117.491 487.943,117.491 472.587,137.259 459.35,137.259 480.882,105.841   "/>
   </g>
   <g id="POLYLINE_1_">
    <polygon fill="#003067" stroke="#003067" stroke-width="2" id="svg_2" points="484.516,61.929 471.279,61.929 471.279,24.158 436.509,24.158 436.509,10.568 519.816,10.568 519.816,24.158     484.516,24.158   "/>
   </g>
   <g id="POLYLINE_2_">
    <path fill="#003067" stroke="#003067" stroke-width="2" id="svg_3" d="m198.311005,137.259003l38.093002,0l0,-126.475002l-151.944008,0c-8.433998,0.141 -17.241997,1.754999 -23.599998,7.747999c-4.584999,4.32 -8.932999,9.213001 -12.101002,14.675001l-48.758999,104.052002l40.054001,0l41.795998,-80.108002c2.492004,-3.567001 5.801003,-6.498001 9.142998,-9.250999c3.272003,-2.696003 7.151001,-4.401001 11.311005,-5.153c1.584,-0.286003 3.187996,-0.367001 4.794998,-0.397003l91.210999,0l0,94.909004l0.001007,0l0,0z"/>
   </g>
   <g id="POLYLINE_3_">
    <path fill="#003067" stroke="#003067" stroke-width="2" id="svg_4" d="m334.320007,123.316002l0,13.943001l-66.627991,0c-3.959015,-0.067001 -7.729004,-0.95401 -11.046997,-3.186996c-3.327011,-2.239014 -5.518005,-5.549011 -5.632004,-9.610008l0,-19.148994l83.306992,0l0,12.177994l-70.070007,0l0,5.825005l70.070007,0l0,0z"/>
   </g>
   <g id="POLYLINE_4_">
    <path fill="#003067" stroke="#003067" stroke-width="2" id="svg_5" d="m251.013,99.487999c0,-2.083 0.270004,-4.063995 1.326996,-5.899002c0.992996,-1.723999 2.391006,-3.100998 3.981995,-4.274994c3.305023,-2.440002 7.328003,-3.347 11.369995,-3.415001l66.628021,0l0,13.589996l-83.307007,0l0,-0.000999z"/>
   </g>
   <g id="POLYLINE_5_">
    <path fill="#003067" stroke="#003067" stroke-width="2" id="svg_6" d="m321.17099,40.75l0,-30.182l13.14801,0l0,38.564c-0.121002,4.062 -2.303009,7.368 -5.632019,9.610001c-3.316986,2.232998 -7.088989,3.118999 -11.048004,3.186001l-49.947998,0c-3.958984,-0.067001 -7.729004,-0.954002 -11.046997,-3.186001c-3.326996,-2.239002 -5.51799,-5.549 -5.631989,-9.610001l0,-38.564l13.237,0l0,30.356999c0.010986,5.310001 7.014984,6.944 11.118988,7.061001l34.770996,0c4.080017,-0.131001 10.999023,-2.081001 11.032013,-7.236l0,0z"/>
   </g>
   <g id="POLYLINE_6_">
    <rect fill="#003067" stroke="#003067" stroke-width="2" id="svg_7" height="79.237" width="38.096" y="58.022" x="122.338"/>
   </g>
   <g id="POLYLINE_7_">
    <path fill="#003067" stroke="#003067" stroke-width="2" id="svg_8" d="m413.919006,116.080002l0,-9.885002c-1.18399,-4.950996 -7.080994,-6.583 -11.473999,-6.707001l-58.684998,0l0,-13.501999l66.626984,0c3.957001,0.067001 7.733002,0.949997 11.048004,3.186996c3.328003,2.246002 5.511017,5.545006 5.631989,9.610001l0,25.68c-0.120972,4.061996 -2.302979,7.367996 -5.631989,9.610001c-3.316986,2.233002 -7.088989,3.119003 -11.048004,3.186996l-66.626984,0l0,-32.122993l13.237,0l0,18.18l45.889984,0c4.06601,-0.134003 11.019012,-2.082001 11.032013,-7.237l0,0z"/>
   </g>
   <g id="POLYLINE_8_">
    <path fill="#003067" stroke="#003067" stroke-width="2" id="svg_9" d="m427.067993,47.986l0,13.943001l-66.627991,0c-3.958008,-0.067001 -7.729004,-0.952999 -11.046997,-3.186001c-3.326996,-2.241001 -5.516998,-5.547001 -5.632019,-9.610001l0,-38.565l13.237,0l0,30.356999c0.006012,5.309002 7.017029,6.944 11.118011,7.061001l58.951996,0l0,0z"/>
   </g>
   <g id="POLYLINE_9_">
    <rect fill="#003067" stroke="#003067" stroke-width="2" id="svg_10" height="13.59" width="13.237" y="85.898" x="436.509"/>
   </g>
   <g id="POLYLINE_10_">
    <rect fill="#003067" stroke="#003067" stroke-width="2" id="svg_11" height="32.123" width="13.237" y="105.136" x="436.509"/>
   </g>
   <g id="POLYLINE_11_">
    <rect fill="#003067" stroke="#003067" stroke-width="2" id="svg_12" height="32.123" width="13.237" y="29.807" x="529.257"/>
   </g>
   <g id="POLYLINE_12_">
    <rect fill="#003067" stroke="#003067" stroke-width="2" id="svg_13" height="13.59" width="13.237" y="10.568" x="529.257"/>
   </g>
   <g id="svg_14">
    <path fill="#003067" stroke="#003067" stroke-width="2" id="svg_15" d="m561.325012,0l0,147.826996l50.440002,0l0,-147.826996l-50.440002,0l0,0l0,0zm39.195984,129.75c-0.093018,4.147995 -2.372986,7.507004 -6.726013,7.850006c-1.080994,0.084991 -2.178955,0.034988 -3.261963,0.034988c-0.77002,0 -1.505005,0.024002 -2.22699,-0.284988c-1.530029,-0.658005 -2.173035,-2.297012 -2.554016,-3.803009c-0.164001,1.462006 -0.619995,3.141006 -2.080994,3.803009c-0.705994,0.319 -1.442017,0.284988 -2.199036,0.284988c-1.083008,0 -2.180969,0.050003 -3.261963,-0.034988c-4.381042,-0.346008 -6.625,-3.738007 -6.775024,-7.891006l0,-31.455002l18.121033,0l0,32.872009l3.304993,0l0,-32.872009l7.708984,0l-0.049011,31.496002l0,0zm0.049988,-52.478996l-29.13501,16.520996l0,-6.258003l11.213989,-7.091995l0,-12.514999l-11.213989,-7.259003l0,-6.257l17.820984,10.178997l0,11.681007l3.604004,-2.211006l0,-7.633995l7.709045,4.504997l0,6.340004l0.000977,0zm0,-60.445004l-17.220032,0c-2.69696,0.001999 -3.928955,2.968 -4.005981,5.256001l0,27.867001l-7.908997,0l0,-31.496002c0.02002,-4.062999 3.005981,-7.867999 7.259033,-7.883999l21.875977,0l0,6.257l0,0z"/>
    <polygon stroke="#003067" stroke-width="2" id="svg_16" points="579.145,131.126 582.65,131.126 582.65,104.511 579.145,104.511 579.145,131.126   " fill="#003067"/>
   </g>
  </g>
 </g>
</svg>